<svg width="100" height="100" viewBox="0 0 100 100" fill="none" xmlns="http://www.w3.org/2000/svg">
<rect width="100" height="100" fill="url(#paint0_radial_270_2)"/>
<path d="M28.12 47.9H27.62V48.4V55.96V56.46H28.12H31.5774C31.5607 58.0589 31.4626 59.383 31.2868 60.4378L31.2866 60.4377L31.2847 60.4517C31.1287 61.5829 30.8989 62.4459 30.6101 63.0617C30.3231 63.6338 29.9908 63.9756 29.6364 64.1528L29.6284 64.1567L29.6206 64.161C29.2672 64.3538 28.8328 64.46 28.3 64.46C27.5544 64.46 27 64.2677 26.5907 63.9248C26.2234 63.5837 25.8773 62.9241 25.6071 61.8469C25.3765 60.767 25.2188 59.3012 25.1395 57.4387C25.06 55.5282 25.02 53.1359 25.02 50.26C25.02 47.3838 25.06 45.0115 25.1395 43.1412L25.1396 43.1408C25.2189 41.2377 25.3766 39.7524 25.6071 38.673C25.8759 37.6021 26.2384 36.9479 26.6362 36.6074C27.0847 36.2581 27.7036 36.06 28.54 36.06C29.1211 36.06 29.5567 36.1956 29.8826 36.4306C30.208 36.6651 30.4692 37.0313 30.6441 37.5735L30.6484 37.5866L30.6533 37.5995C31.0185 38.5488 31.22 40.1308 31.22 42.4V42.9H31.72H42.52H43.02V42.4C43.02 39.7603 42.6753 37.4973 41.9684 35.6252C41.267 33.7277 40.2898 32.1607 39.0275 30.9405C37.7685 29.7234 36.2596 28.8448 34.5095 28.3028C32.8148 27.7657 30.9636 27.5 28.96 27.5C25.6362 27.5 22.8762 28.0056 20.7069 29.0476C18.5442 30.0466 16.8308 31.5291 15.5785 33.491L15.5785 33.4909L15.5745 33.4974C14.372 35.4463 13.554 37.8327 13.1062 40.6413L13.1062 40.6412L13.1052 40.6483C12.7009 43.4377 12.5 46.6425 12.5 50.26C12.5 53.8288 12.6002 57.0013 12.8013 59.7761L12.8013 59.7761L12.8019 59.7833C13.0451 62.5809 13.5944 64.9589 14.4635 66.9039C15.3423 68.8708 16.6497 70.3743 18.3874 71.3915L18.3874 71.3916L18.3954 71.396C20.1387 72.374 22.4746 72.84 25.36 72.84C26.3404 72.84 27.3016 72.7787 28.2433 72.6559C29.2331 72.5321 30.1478 72.325 30.9852 72.0319L30.9852 72.0321L30.998 72.0272C31.8949 71.6856 32.6891 71.193 33.3765 70.5499C33.7323 70.2352 34.0466 69.8813 34.3199 69.4897L34.461 71.7117L34.4907 72.18H34.96H42.52H43.02V71.68V48.4V47.9H42.52H28.12ZM46.6398 28.34H46.1398V28.84V71.68V72.18H46.6398H57.0798H57.5798V71.68V44.535L62.6483 71.7714L62.7243 72.18H63.1398H71.1798H71.5954L71.6714 71.7714L76.7398 44.535V71.68V72.18H77.2398H87.6798H88.1798V71.68V28.84V28.34H87.6798H71.7198H71.3007L71.2275 28.7527L67.1598 51.6944L63.0922 28.7527L63.019 28.34H62.5998H46.6398Z" fill="black" stroke="white"/>
<defs>
<radialGradient id="paint0_radial_270_2" cx="0" cy="0" r="1" gradientUnits="userSpaceOnUse" gradientTransform="translate(50 50) rotate(90) scale(50)">
<stop offset="0.84" stop-color="white"/>
<stop offset="1" stop-color="#999999" stop-opacity="0.3"/>
</radialGradient>
</defs>
</svg>
